inDegrees=yes
name=ik_Xsens_quaternion (2)
DataType=double
version=3
OpenSimVersion=4.4-2022-07-23-0e9fedc
endheader
time	pelvis_tilt	pelvis_list	pelvis_rotation	pelvis_tx	pelvis_ty	pelvis_tz	hip_flexion_r	hip_adduction_r	hip_rotation_r	knee_angle_r	knee_angle_r_beta	ankle_angle_r	subtalar_angle_r	mtp_angle_r	hip_flexion_l	hip_adduction_l	hip_rotation_l	knee_angle_l	knee_angle_l_beta	ankle_angle_l	subtalar_angle_l	mtp_angle_l	lumbar_extension	lumbar_bending	lumbar_rotation	arm_flex_r	arm_add_r	arm_rot_r	elbow_flex_r	pro_sup_r	wrist_flex_r	wrist_dev_r	arm_flex_l	arm_add_l	arm_rot_l	elbow_flex_l	pro_sup_l	wrist_flex_l	wrist_dev_l
18.23	20519.97737812922	-145437.3504160223	-42667.68596345321	1.041296394913797e-40	0.93	-2.016331432346454e-28	16.40057915661381	-12.06040227248087	-8.652160290981433	59.3350699549914	1.035592332615763	-12.38054143337129	-3.11682585587972e-16	-8.36905465237541e-16	17.26737787069642	-1.025266941652677	-4.983886717248171	13.71352898607782	0.2393462328747376	1.570462878335011	2.433017724185414e-17	-1.042895710700956e-16	-9.502185075002147e-21	-4.262844625429695e-16	-1.801488011907229e-15	7.214749654588122e-16	1.435437252035044e-17	-3.278209198710346e-16	1.388276054624527e-16	3.652912607307233e-16	-6.426292638813031e-20	-3.805718869960518e-19	1.894055927678687e-15	-7.655696649198109e-16	-1.42094916656761e-15	3.256306476345287e-16	3.652351360886506e-16	9.549037861926429e-21	1.994053368288932e-19
18.24	20520.01609261267	-145437.2793467311	-42667.11424414019	0	0.93	0	17.19220402651859	-12.64677117522105	-8.343095544666411	58.65356881148927	1.023697893805545	-12.065226538614	0	0	16.97328795587697	-0.8336893713908882	-4.602348922612561	13.75777000787809	0.240118384369599	1.814222874883234	0	0	0	0	0	0	0	0	0	0	0	0	0	0	0	0	9.496797883023717e-39	0	0
18.25	20520.09168307575	-145437.1576993777	-42666.52040424445	0	0.93	0	17.9575485994377	-13.04968884843536	-8.111415629730708	57.79670446063592	1.00874278964019	-11.50342382800176	0	0	16.74979605194691	-0.7018903062109005	-4.31613773848488	13.81675921701759	0.2411479402922307	2.058617466252935	0	0	0	0	0	0	0	0	0	0	0	0	0	0	0	0	0	0	0
18.26	20520.12086361287	-145437.0491137591	-42665.866121806	0	0.93	0	18.39165350652503	-13.38185379320302	-8.043605037357024	56.32662994323757	0.9830851490619223	-11.13496971108427	0	0	16.55039155333444	-0.5694476916328441	-4.096453994216461	13.98375526445333	0.244062571157801	2.305844874662941	0	0	0	0	0	0	0	0	6.972715911334746e-40	1.171079116231023e-38	0	0	0	0	0	6.972715911334746e-40	1.171079116231023e-38	0	0
18.27	20520.18057465678	-145436.9409057221	-42665.18726517406	0	0.93	0	18.87140474897266	-13.60014934570351	-7.977728334717898	54.90495749863069	0.9582722840186556	-10.43468826479206	0	0	16.39726335725121	-0.449373555023379	-3.893535357190735	14.11178121516384	0.2462970455256954	2.49847078012823	0	0	0	0	0	0	0	0	0	0	0	0	0	0	0	0	0	0	0
18.28	20520.22995317662	-145436.8436719541	-42664.47007042693	0	0.93	0	19.29106591482537	-13.73879204157512	-7.893048659804246	53.37113992189175	0.9315021171796003	-9.666796083376473	0	0	16.22243351457122	-0.3573077394085291	-3.67099187691651	14.23628392159277	0.2484700276805242	2.661957545551551	0	0	0	0	0	0	0	0	0	1.328315051427457e-38	0	0	0	0	0	1.594151011885536e-38	1.514607722403188e-38	0	0
18.29	20520.29577007836	-145436.7709036157	-42663.71478890115	0	0.93	0	19.67548642536242	-13.78856798251913	-7.789761492227251	51.65990425440593	0.9016354205044098	-8.913928450394781	0	0	16.06493743814085	-0.2287460393842021	-3.414742526173073	14.34954103506784	0.2504467372119689	2.864130414588273	0	0	0	0	0	0	0	0	0	0	0	0	0	0	0	1.738346122431876e-40	1.052357267868557e-38	0	0
18.3	20520.35968730572	-145436.7362683383	-42662.91829492737	-5.613696482737754e-42	0.93	-1.039349964969065e-30	20.01787725398987	-13.80407774792508	-7.667094630648565	49.80185802367362	0.8692063961238607	-8.246113196737015	3.42796391822939e-24	1.336348666414313e-26	15.91564294384948	-0.07497491808714314	-3.129188817836068	14.52532448739036	0.2535147372255194	3.105207741229858	-4.17361568243662e-24	-5.034686511024959e-26	-6.551860314982499e-28	4.680904582408151e-27	-3.946356610673301e-26	6.6128778602788e-20	-1.127731990089569e-20	-1.450453833019315e-17	5.43320695592579e-16	5.433207521753841e-16	-3.697561067635383e-26	4.217415142327952e-26	6.230144167885877e-18	4.241668799352336e-18	-7.409460315161642e-17	5.433206952662055e-16	5.433207480062299e-16	-3.434384445206639e-26	-5.340788963719633e-28
18.31	20520.4380624972	-145436.7204805865	-42662.09057989279	0	0.93	0	20.36626775530057	-13.73421151746579	-7.540009496754886	47.8369937161543	0.8349130446027302	-7.644265577312432	0	0	15.81596180887931	0.1256157464112791	-2.770410675558665	14.78499501801556	0.2580468429553299	3.435702430964752	0	0	0	0	0	0	0	0	0	0	0	0	0	0	0	0	0	0	0
18.32	20520.519665458	-145436.7298398566	-42661.22715599163	0	0.93	0	20.73335182159736	-13.57447982417708	-7.354703305640928	45.84655154763526	0.8001732751915372	-7.058425836886413	3.213828025130289e-19	4.955577311371548e-28	15.74523822714655	0.3326562152705072	-2.364361431649797	15.08916364171351	0.2633555869201187	3.757556111082819	1.174187290774663e-22	1.798674656769651e-27	5.986588694685689e-29	4.588173967574586e-29	4.329702898443758e-30	-2.484248893729866e-17	1.771910825492843e-26	-1.064496723889342e-16	0	0	-1.995057714967879e-27	3.592957658620078e-27	-5.758808369678188e-17	6.142926497079853e-18	4.362645843084606e-17	0	0	-1.024821340804692e-27	-1.028229127550811e-27
18.33	20520.60640092501	-145436.7536109416	-42660.33337354246	0	0.93	0	21.12396802708755	-13.27747773204698	-7.069207456362581	43.86243709601994	0.7655439452744481	-6.442449285912187	0	0	15.71981739191046	0.5556314473444154	-1.900963363618296	15.41161111868967	0.2689833570581013	4.071380727935178	0	0	0	0	0	0	0	0	0	0	0	0	0	0	0	0	0	0	0
18.34	20520.68390837903	-145436.7844448815	-42659.42036829358	0	0.93	0	21.55992928722972	-12.85144067477721	-6.620880119776758	42.03526712464041	0.7336538132803048	-5.746899758009777	0	0	15.71780096399073	0.802462337735012	-1.381791675058257	15.77147046298915	0.2752640874601952	4.338405250952049	0	0	0	0	0	0	0	0	0	6.111159193124918e-39	0	0	0	0	0	0	0	0	0
18.35	20520.77889264555	-145436.804434035	-42658.46712531894	2.435983607180344e-43	0.93	6.486707510056465e-33	22.0027227544013	-12.32178073242132	-6.086903029239959	40.20758407395155	0.7017547263628897	-5.140686302721972	1.058591891951029e-17	-1.593900180027973e-25	15.72412691994473	1.053035710292429	-0.7617904782386131	16.15420154520536	0.2819440049945892	4.713851038808968	7.7833451179102e-23	4.428185820922741e-25	1.106308862975292e-28	4.326147313988888e-27	-1.605745957030631e-29	-1.714154092978427e-18	2.578052165049043e-26	-5.911248055826255e-17	1.938571530560997e-16	1.932513416427761e-16	2.059377291415539e-26	-2.73271876442872e-27	1.235743405370206e-18	-9.55636058734328e-18	7.713779994706276e-17	1.931243767981298e-16	1.932511232321377e-16	2.290690496622101e-27	1.023065533477386e-26
18.36	20520.87079026219	-145436.8172830261	-42657.49115358534	0	0.93	0	22.43495589296673	-11.70862888480801	-5.475206608124378	38.39506196946707	0.6701202478744589	-4.557164203803083	0	0	15.72648453385573	1.296965817804297	-0.1014566058637647	16.59838933119867	0.2896965443573165	5.091543256760509	0	0	0	0	0	0	0	0	0	0	0	0	0	0	0	0	0	0	0
18.37	20520.9579161879	-145436.8236195917	-42656.48854360735	-2.221432384055893e-39	0.93	2.396461017415774e-27	22.79861468946646	-11.05684772402906	-4.790003118405959	36.49845884666802	0.6370182787780091	-4.101450744642377	-1.98534381597253e-16	5.736701422532605e-17	15.76399538157711	1.532730339900388	0.6162850250318371	17.0722720415044	0.2979673579204258	5.472798025359183	-1.052414091613562e-16	6.004047310617323e-16	2.305919727932618e-26	6.883477010915198e-16	-1.800024145929375e-16	-2.589494952122874e-16	2.250484049940019e-16	1.918350030349748e-16	1.300730933714288e-14	9.6260659779934e-15	-5.799190178764714e-23	6.304067427392895e-22	1.006825724210457e-16	-6.828268703423786e-16	-8.058850508266767e-16	9.624686278072363e-15	9.626155707870092e-15	3.299609378512486e-23	-7.614062880349281e-21
18.38	20521.04797659883	-145436.824120991	-42655.46347605352	0	0.93	0	23.08879833472988	-10.37097799157491	-4.061729990553819	34.50311379308446	0.6021929378795933	-3.833694946674752	0	0	15.82715086430362	1.76987075906807	1.352466146128085	17.59375952066627	0.3070690314397259	5.864894318641755	0	0	0	0	0	0	0	0	0	0	0	0	0	0	0	0	0	0	0
